<svg id="svg" version="1.1" xmlns="http://www.w3.org/2000/svg" xmlns:xlink="http://www.w3.org/1999/xlink" width="400" height="400" viewBox="0, 0, 400,400"><g id="svgg"><path id="path0" d="M6.264 94.269 C 6.119 94.414,6.000 161.913,6.000 244.267 L 6.000 394.000 60.735 394.000 L 115.470 394.000 115.735 378.334 C 115.881 369.718,116.000 320.578,116.000 269.134 L 116.000 175.600 127.900 175.541 C 134.445 175.509,162.210 175.374,189.600 175.241 L 239.400 175.000 239.400 134.600 L 239.400 94.200 210.119 94.097 L 180.837 93.995 180.603 95.297 C 180.474 96.014,180.420 101.640,180.484 107.800 L 180.600 119.000 183.000 119.200 C 189.927 119.777,192.309 127.287,186.715 130.914 L 185.040 132.000 174.104 132.000 C 163.885 132.000,163.063 131.946,161.568 131.184 C 155.570 128.124,158.163 119.200,165.051 119.200 C 166.564 119.200,167.179 119.031,167.357 118.567 C 167.854 117.272,167.624 96.210,167.100 95.083 L 166.600 94.006 122.500 94.003 C 83.565 94.000,78.400 94.070,78.400 94.600 C 78.400 94.930,78.217 95.200,77.994 95.200 C 77.726 95.200,77.624 99.247,77.694 107.100 L 77.800 119.000 80.493 119.231 C 83.045 119.451,83.483 119.644,85.424 121.408 C 87.978 123.728,87.037 129.234,83.770 131.093 C 81.477 132.398,61.337 132.494,58.824 131.212 C 52.753 128.115,54.923 119.833,61.965 119.227 L 64.600 119.000 64.716 107.800 C 64.780 101.640,64.727 96.019,64.599 95.308 L 64.367 94.017 35.448 94.011 C 19.542 94.007,6.410 94.124,6.264 94.269 " stroke="none" fill="#fbbf5a" fill-rule="evenodd"></path><path id="path1" d="M113.100 0.267 C 111.615 0.360,110.400 0.608,110.400 0.818 C 110.400 1.028,109.691 1.200,108.824 1.200 C 107.957 1.200,107.136 1.380,107.000 1.600 C 106.864 1.820,106.324 2.000,105.800 2.000 C 105.276 2.000,104.736 2.180,104.600 2.400 C 104.464 2.620,103.823 2.800,103.176 2.800 C 102.529 2.800,102.000 2.980,102.000 3.200 C 102.000 3.420,101.640 3.600,101.200 3.600 C 100.760 3.600,100.400 3.780,100.400 4.000 C 100.400 4.220,99.860 4.400,99.200 4.400 C 98.540 4.400,98.000 4.580,98.000 4.800 C 98.000 5.020,97.640 5.200,97.200 5.200 C 96.760 5.200,96.400 5.380,96.400 5.600 C 96.400 5.820,96.040 6.000,95.600 6.000 C 95.160 6.000,94.800 6.180,94.800 6.400 C 94.800 6.620,94.530 6.800,94.200 6.800 C 93.870 6.800,93.600 6.980,93.600 7.200 C 93.600 7.420,93.330 7.600,93.000 7.600 C 92.670 7.600,92.400 7.780,92.400 8.000 C 92.400 8.220,92.130 8.400,91.800 8.400 C 91.470 8.400,91.200 8.580,91.200 8.800 C 91.200 9.020,91.065 9.179,90.900 9.153 C 90.104 9.027,89.555 9.281,88.636 10.200 C 88.086 10.750,87.440 11.200,87.201 11.200 C 86.458 11.200,76.092 21.885,75.381 23.384 C 75.011 24.163,74.549 24.800,74.354 24.800 C 74.159 24.800,74.000 25.171,74.000 25.624 C 74.000 26.077,73.820 26.336,73.600 26.200 C 73.380 26.064,73.200 26.233,73.200 26.576 C 73.200 26.919,73.020 27.200,72.800 27.200 C 72.580 27.200,72.400 27.470,72.400 27.800 C 72.400 28.130,72.220 28.400,72.000 28.400 C 71.780 28.400,71.600 28.760,71.600 29.200 C 71.600 29.640,71.420 30.000,71.200 30.000 C 70.980 30.000,70.800 30.360,70.800 30.800 C 70.800 31.240,70.620 31.600,70.400 31.600 C 70.180 31.600,70.000 31.960,70.000 32.400 C 70.000 32.840,69.820 33.200,69.600 33.200 C 69.380 33.200,69.200 33.549,69.200 33.976 C 69.200 34.403,69.020 34.864,68.800 35.000 C 68.580 35.136,68.400 35.687,68.400 36.224 C 68.400 36.761,68.220 37.200,68.000 37.200 C 67.780 37.200,67.600 37.549,67.600 37.976 C 67.600 38.403,67.420 38.864,67.200 39.000 C 66.980 39.136,66.800 39.867,66.800 40.624 C 66.800 41.381,66.620 42.000,66.400 42.000 C 66.180 42.000,66.000 42.630,66.000 43.400 C 66.000 44.170,65.820 44.800,65.600 44.800 C 65.380 44.800,65.200 45.700,65.200 46.800 C 65.200 47.900,65.017 48.800,64.794 48.800 C 64.521 48.800,64.454 56.325,64.591 71.700 C 64.703 84.295,64.841 100.180,64.898 107.000 L 65.000 119.400 62.800 119.514 C 56.108 119.862,53.348 126.267,58.195 130.200 L 59.674 131.400 71.137 131.400 C 82.499 131.400,82.612 131.392,83.906 130.468 C 88.961 126.863,86.286 119.862,79.722 119.521 L 77.400 119.400 77.294 107.334 C 77.204 96.994,77.275 95.182,77.794 94.663 C 78.320 94.137,78.400 91.234,78.400 72.629 C 78.400 58.610,78.538 51.200,78.800 51.200 C 79.020 51.200,79.200 50.300,79.200 49.200 C 79.200 48.100,79.380 47.200,79.600 47.200 C 79.820 47.200,80.000 46.660,80.000 46.000 C 80.000 45.340,80.180 44.800,80.400 44.800 C 80.620 44.800,80.800 44.260,80.800 43.600 C 80.800 42.940,80.941 42.400,81.113 42.400 C 81.285 42.400,81.665 41.590,81.957 40.600 C 82.249 39.610,82.648 38.800,82.844 38.800 C 83.040 38.800,83.200 38.468,83.200 38.062 C 83.200 37.656,83.560 36.998,84.000 36.600 C 84.440 36.202,84.800 35.634,84.800 35.338 C 84.800 35.042,84.980 34.800,85.200 34.800 C 85.420 34.800,85.600 34.480,85.600 34.088 C 85.600 33.697,85.960 33.117,86.400 32.800 C 86.840 32.483,87.200 31.993,87.200 31.712 C 87.200 31.430,87.380 31.200,87.600 31.200 C 87.820 31.200,88.000 31.002,88.000 30.760 C 88.000 30.519,88.559 29.799,89.242 29.160 C 89.926 28.522,90.383 28.000,90.258 28.000 C 90.009 28.000,92.477 25.528,94.151 24.100 C 94.731 23.605,95.340 23.200,95.503 23.199 C 95.666 23.199,96.430 22.659,97.200 22.000 C 97.970 21.341,98.810 20.801,99.067 20.801 C 99.323 20.800,99.593 20.634,99.667 20.430 C 99.740 20.227,100.070 20.002,100.400 19.930 C 100.730 19.859,101.090 19.706,101.200 19.592 C 101.310 19.477,102.660 18.784,104.200 18.050 C 105.740 17.316,107.313 16.555,107.695 16.358 C 108.077 16.161,108.662 16.000,108.995 16.000 C 109.328 16.000,109.600 15.820,109.600 15.600 C 109.600 15.380,110.320 15.200,111.200 15.200 C 112.080 15.200,112.800 15.020,112.800 14.800 C 112.800 14.580,113.779 14.400,114.976 14.400 C 116.173 14.400,117.264 14.220,117.400 14.000 C 117.544 13.767,119.804 13.600,122.824 13.600 C 126.008 13.600,128.000 13.754,128.000 14.000 C 128.000 14.220,128.990 14.400,130.200 14.400 C 131.410 14.400,132.400 14.580,132.400 14.800 C 132.400 15.020,133.120 15.200,134.000 15.200 C 134.880 15.200,135.600 15.380,135.600 15.600 C 135.600 15.820,135.949 16.000,136.376 16.000 C 136.803 16.000,137.264 16.180,137.400 16.400 C 137.536 16.620,138.087 16.800,138.624 16.800 C 139.161 16.800,139.600 16.980,139.600 17.200 C 139.600 17.420,139.960 17.600,140.400 17.600 C 140.840 17.600,141.200 17.780,141.200 18.000 C 141.200 18.220,141.560 18.400,142.000 18.400 C 142.440 18.400,142.800 18.544,142.800 18.720 C 142.800 18.895,143.430 19.267,144.200 19.546 C 144.970 19.824,145.600 20.208,145.600 20.399 C 145.600 20.590,145.959 20.860,146.398 20.999 C 146.836 21.138,147.421 21.474,147.698 21.745 C 147.974 22.016,149.050 22.820,150.090 23.531 C 152.118 24.919,156.799 29.346,156.801 29.878 C 156.801 30.055,157.320 30.807,157.954 31.548 C 158.588 32.289,159.488 33.639,159.954 34.548 C 161.182 36.942,162.154 38.566,162.520 38.836 C 162.696 38.966,162.869 39.461,162.905 39.936 C 162.941 40.411,163.112 40.800,163.285 40.800 C 163.458 40.800,163.600 41.160,163.600 41.600 C 163.600 42.040,163.780 42.400,164.000 42.400 C 164.220 42.400,164.400 42.940,164.400 43.600 C 164.400 44.260,164.580 44.800,164.800 44.800 C 165.020 44.800,165.200 45.531,165.200 46.424 C 165.200 47.404,165.358 47.949,165.600 47.800 C 165.846 47.648,166.000 48.321,166.000 49.553 C 166.000 50.653,166.180 51.664,166.400 51.800 C 166.658 51.960,166.800 59.521,166.800 73.175 C 166.800 91.556,166.879 94.367,167.406 94.805 C 167.927 95.237,167.997 96.995,167.906 107.354 L 167.800 119.400 165.200 119.607 C 157.400 120.230,156.098 130.273,163.671 131.399 C 168.363 132.097,185.346 131.438,186.651 130.508 C 191.723 126.890,189.004 119.857,182.400 119.514 L 180.200 119.400 180.094 107.426 C 180.026 99.715,180.132 95.308,180.394 95.046 C 180.917 94.523,180.959 50.400,180.436 50.400 C 180.235 50.400,179.972 49.365,179.851 48.100 C 179.437 43.775,179.119 42.000,178.760 42.000 C 178.562 42.000,178.400 41.460,178.400 40.800 C 178.400 40.140,178.220 39.600,178.000 39.600 C 177.780 39.600,177.600 39.161,177.600 38.624 C 177.600 38.087,177.420 37.536,177.200 37.400 C 176.980 37.264,176.800 36.803,176.800 36.376 C 176.800 35.949,176.620 35.600,176.400 35.600 C 176.180 35.600,176.000 35.060,176.000 34.400 C 176.000 33.740,175.843 33.200,175.650 33.200 C 175.458 33.200,175.196 32.682,175.070 32.048 C 174.943 31.415,174.560 30.618,174.220 30.277 C 173.879 29.936,173.600 29.537,173.600 29.390 C 173.600 29.244,173.228 28.601,172.773 27.962 C 172.318 27.323,172.055 26.800,172.188 26.800 C 172.322 26.800,172.064 26.406,171.616 25.925 C 171.167 25.443,170.800 24.885,170.800 24.685 C 170.800 24.485,170.305 23.842,169.700 23.257 C 169.095 22.671,168.552 21.959,168.493 21.674 C 168.347 20.973,159.302 12.031,159.022 12.312 C 158.900 12.434,158.800 12.313,158.800 12.043 C 158.800 11.773,158.620 11.664,158.400 11.800 C 158.180 11.936,158.000 11.895,158.000 11.709 C 158.000 11.202,154.114 8.400,153.410 8.400 C 153.075 8.400,152.800 8.220,152.800 8.000 C 152.800 7.780,152.429 7.600,151.976 7.600 C 151.523 7.600,151.264 7.420,151.400 7.200 C 151.536 6.980,151.367 6.800,151.024 6.800 C 150.681 6.800,150.400 6.620,150.400 6.400 C 150.400 6.180,150.040 6.000,149.600 6.000 C 149.160 6.000,148.800 5.820,148.800 5.600 C 148.800 5.380,148.451 5.200,148.024 5.200 C 147.597 5.200,147.136 5.020,147.000 4.800 C 146.864 4.580,146.313 4.400,145.776 4.400 C 145.239 4.400,144.800 4.220,144.800 4.000 C 144.800 3.780,144.440 3.600,144.000 3.600 C 143.560 3.600,143.200 3.420,143.200 3.200 C 143.200 2.980,142.660 2.800,142.000 2.800 C 141.340 2.800,140.800 2.620,140.800 2.400 C 140.800 2.180,140.170 2.000,139.400 2.000 C 138.630 2.000,138.000 1.820,138.000 1.600 C 138.000 1.380,137.295 1.200,136.433 1.200 C 135.572 1.200,134.802 1.005,134.722 0.767 C 134.571 0.314,118.342 -0.061,113.100 0.267 M192.490 204.241 C 187.880 207.875,190.278 214.800,196.147 214.800 C 199.359 214.800,199.200 214.384,199.200 222.778 C 199.200 232.834,200.132 238.819,202.785 245.800 C 207.151 257.289,216.411 268.078,227.400 274.479 C 230.771 276.443,236.437 278.708,241.000 279.917 C 245.796 281.187,247.780 281.400,254.800 281.400 C 262.932 281.400,265.539 281.007,272.600 278.713 C 286.239 274.284,297.957 264.067,304.384 251.000 C 307.104 245.471,307.938 243.104,309.600 236.200 C 309.865 235.100,310.176 230.060,310.291 225.000 C 310.524 214.733,310.505 214.800,313.269 214.800 C 319.137 214.800,321.745 208.086,317.299 204.421 L 315.818 203.200 304.689 203.200 C 291.396 203.200,291.005 203.310,289.648 207.445 C 288.993 209.441,289.553 211.413,291.290 213.231 C 292.498 214.496,293.218 214.740,296.200 214.895 L 298.200 215.000 298.316 222.200 C 298.558 237.272,295.314 246.414,286.200 256.346 C 281.349 261.631,272.145 266.947,265.400 268.359 C 264.300 268.589,262.555 268.962,261.523 269.189 C 249.491 271.826,233.849 266.584,223.758 256.534 C 216.880 249.684,212.633 240.686,211.609 230.800 C 211.064 225.539,211.108 215.852,211.680 215.280 C 211.944 215.016,213.033 214.800,214.100 214.800 C 218.763 214.800,221.575 210.205,219.439 206.076 C 217.975 203.244,217.751 203.200,205.138 203.204 L 193.800 203.209 192.490 204.241 " stroke="none" fill="#55444c" fill-rule="evenodd"></path><path id="path2" d="M116.499 284.500 L 116.600 393.000 177.700 393.101 C 217.968 393.168,238.800 393.338,238.800 393.601 C 238.800 393.865,265.099 394.000,316.400 394.000 L 394.000 394.000 394.000 383.900 L 394.000 373.800 290.500 373.800 C 180.653 373.800,185.416 373.879,179.200 371.958 C 166.501 368.033,155.555 356.797,152.355 344.400 C 150.757 338.212,150.800 340.626,150.800 256.500 L 150.800 176.000 133.599 176.000 L 116.399 176.000 116.499 284.500 M194.539 202.306 C 194.285 202.468,199.083 202.600,205.201 202.600 C 211.319 202.600,216.116 202.468,215.862 202.306 C 215.608 202.144,210.810 202.012,205.200 202.012 C 199.590 202.012,194.792 202.144,194.539 202.306 M293.862 202.300 C 293.760 202.465,298.592 202.600,304.600 202.600 C 310.608 202.600,315.316 202.468,315.062 202.306 C 314.452 201.918,294.101 201.912,293.862 202.300 M192.000 203.600 C 191.450 204.030,191.152 204.386,191.337 204.391 C 191.522 204.396,192.131 204.040,192.691 203.600 C 193.250 203.160,193.549 202.804,193.354 202.809 C 193.159 202.814,192.550 203.170,192.000 203.600 M217.611 203.450 C 221.656 205.962,221.394 212.518,217.161 214.694 C 216.498 215.035,216.405 215.190,216.860 215.194 C 218.894 215.212,221.539 210.508,220.981 207.867 C 220.498 205.581,218.234 202.766,216.914 202.811 C 216.741 202.816,217.055 203.104,217.611 203.450 M291.383 203.509 C 290.933 203.889,290.311 204.560,290.000 205.000 C 289.689 205.440,290.145 205.170,291.013 204.400 C 291.881 203.630,292.668 202.955,292.762 202.900 C 292.856 202.845,292.768 202.804,292.567 202.809 C 292.365 202.814,291.832 203.129,291.383 203.509 M318.399 204.700 C 318.922 205.415,319.413 206.000,319.489 206.000 C 319.793 206.000,318.801 204.500,318.145 203.967 C 317.713 203.616,317.810 203.896,318.399 204.700 M319.813 207.694 C 320.225 210.477,318.072 214.800,316.274 214.800 C 316.050 214.800,315.976 214.910,316.110 215.044 C 317.767 216.701,321.181 209.581,319.968 207.000 C 319.687 206.404,319.648 206.581,319.813 207.694 M190.800 213.000 C 191.648 214.201,192.925 215.185,193.600 215.160 C 194.133 215.139,194.133 215.113,193.600 214.919 C 193.270 214.800,192.378 214.139,191.617 213.451 C 190.857 212.763,190.489 212.560,190.800 213.000 M290.088 213.192 C 290.360 213.628,290.852 214.088,291.182 214.214 C 291.512 214.341,291.349 213.984,290.821 213.422 C 289.669 212.197,289.417 212.117,290.088 213.192 M194.624 215.638 C 194.747 215.837,195.643 216.000,196.615 216.000 L 198.382 216.000 198.501 223.300 L 198.619 230.600 198.710 223.287 C 198.778 217.722,198.681 215.938,198.300 215.820 C 197.068 215.440,194.420 215.308,194.624 215.638 M213.600 215.560 L 211.800 215.800 211.784 221.600 L 211.768 227.400 211.895 221.700 L 212.021 216.000 213.787 216.000 C 214.758 216.000,215.664 215.820,215.800 215.600 C 215.936 215.380,215.902 215.227,215.724 215.260 C 215.546 215.293,214.590 215.428,213.600 215.560 M293.824 215.638 C 293.947 215.837,294.842 216.000,295.813 216.000 L 297.580 216.000 297.701 222.300 L 297.822 228.600 297.911 222.287 C 297.978 217.523,297.877 215.937,297.500 215.820 C 296.268 215.440,293.620 215.308,293.824 215.638 M312.800 215.600 L 311.000 215.880 312.800 215.934 C 313.790 215.963,314.870 215.813,315.200 215.600 C 315.905 215.145,315.729 215.145,312.800 215.600 M310.877 229.250 C 310.835 230.268,310.698 231.707,310.573 232.450 C 310.390 233.543,310.432 233.667,310.792 233.101 C 311.044 232.707,311.176 231.312,311.096 229.901 C 310.979 227.841,310.941 227.726,310.877 229.250 M297.276 230.450 C 297.234 231.468,297.105 232.907,296.989 233.650 C 296.797 234.882,296.816 234.914,297.207 234.018 C 297.442 233.478,297.571 232.038,297.493 230.818 C 297.355 228.665,297.349 228.655,297.276 230.450 M198.828 232.833 C 198.844 234.025,199.002 235.360,199.180 235.800 C 199.365 236.258,199.416 235.402,199.299 233.800 C 199.050 230.400,198.790 229.865,198.828 232.833 M212.228 233.061 C 212.597 235.103,212.800 235.255,212.800 233.490 C 212.800 232.697,212.609 231.929,212.374 231.784 C 212.085 231.605,212.038 232.012,212.228 233.061 M296.449 235.600 C 296.416 235.930,296.289 236.650,296.167 237.200 C 295.975 238.064,296.007 238.103,296.399 237.488 C 296.648 237.097,296.775 236.377,296.681 235.888 C 296.586 235.400,296.482 235.270,296.449 235.600 M310.054 236.067 C 310.025 236.434,309.884 237.064,309.741 237.467 C 309.541 238.033,309.595 238.096,309.975 237.746 C 310.246 237.497,310.387 236.867,310.288 236.346 C 310.190 235.826,310.084 235.700,310.054 236.067 M212.828 236.276 C 212.918 237.315,213.544 238.196,213.572 237.324 C 213.587 236.842,213.420 236.336,213.200 236.200 C 212.980 236.064,212.813 236.098,212.828 236.276 M199.606 237.833 C 199.609 238.475,199.784 239.270,199.995 239.600 C 200.255 240.009,200.299 239.690,200.132 238.600 C 199.829 236.623,199.598 236.286,199.606 237.833 M295.646 238.667 C 295.621 238.924,295.484 239.464,295.341 239.867 C 295.140 240.436,295.194 240.497,295.579 240.142 C 295.852 239.891,295.989 239.351,295.884 238.942 C 295.779 238.534,295.672 238.410,295.646 238.667 M200.400 241.310 C 200.400 241.883,200.587 242.468,200.816 242.610 C 201.089 242.779,201.138 242.477,200.960 241.734 C 200.592 240.201,200.400 240.056,200.400 241.310 M215.014 242.694 C 216.070 245.222,219.142 250.654,219.846 251.238 C 220.212 251.542,219.881 250.803,219.110 249.596 C 217.284 246.736,215.200 242.587,215.200 241.811 C 215.200 241.475,215.018 241.200,214.795 241.200 C 214.560 241.200,214.652 241.829,215.014 242.694 M201.228 243.876 C 201.213 244.358,201.380 244.864,201.600 245.000 C 202.073 245.292,202.073 244.901,201.600 243.800 C 201.269 243.029,201.255 243.031,201.228 243.876 M288.923 251.900 C 288.308 252.725,287.714 253.496,287.602 253.613 C 287.491 253.731,286.230 255.081,284.800 256.613 L 282.200 259.400 285.087 256.623 C 287.680 254.130,290.771 250.400,290.245 250.400 C 290.133 250.400,289.538 251.075,288.923 251.900 M304.640 251.640 C 304.286 252.349,304.074 253.007,304.169 253.102 C 304.264 253.197,304.638 252.701,305.000 252.000 C 305.362 251.299,305.574 250.641,305.471 250.538 C 305.368 250.435,304.994 250.931,304.640 251.640 M221.130 253.100 C 221.561 253.705,222.319 254.560,222.815 255.000 C 223.408 255.526,223.251 255.157,222.358 253.925 C 221.611 252.893,220.853 252.038,220.673 252.025 C 220.493 252.011,220.698 252.495,221.130 253.100 M205.209 253.100 C 205.214 253.265,205.585 253.850,206.033 254.400 L 206.848 255.400 206.214 254.100 C 205.611 252.865,205.189 252.445,205.209 253.100 M301.593 256.886 C 300.400 258.693,298.906 260.763,298.271 261.486 C 297.636 262.209,297.239 262.800,297.387 262.800 C 297.762 262.800,298.459 262.042,299.594 260.400 C 300.126 259.630,300.662 258.910,300.784 258.800 C 301.082 258.533,302.950 255.629,303.550 254.500 C 304.501 252.710,303.716 253.666,301.593 256.886 M227.600 259.500 C 227.600 259.669,227.960 260.032,228.400 260.307 C 228.840 260.582,229.200 260.669,229.200 260.500 C 229.200 260.331,228.840 259.968,228.400 259.693 C 227.960 259.418,227.600 259.331,227.600 259.500 M281.029 259.829 C 280.605 260.138,280.336 260.469,280.430 260.563 C 280.524 260.657,280.948 260.481,281.371 260.171 C 281.795 259.862,282.064 259.531,281.970 259.437 C 281.876 259.343,281.452 259.519,281.029 259.829 M210.349 260.600 C 211.010 261.809,211.971 262.963,212.157 262.771 C 212.248 262.677,211.780 261.970,211.117 261.200 C 210.454 260.430,210.109 260.160,210.349 260.600 M232.163 262.741 C 232.453 263.210,237.992 265.939,239.575 266.393 C 240.339 266.612,240.727 266.605,240.584 266.374 C 240.457 266.168,240.061 266.000,239.705 266.000 C 239.349 266.000,237.457 265.187,235.501 264.193 C 233.544 263.199,232.043 262.545,232.163 262.741 M276.300 263.029 C 275.695 263.357,275.200 263.710,275.200 263.813 C 275.200 264.199,275.832 263.957,276.800 263.200 C 277.989 262.270,277.811 262.209,276.300 263.029 M215.965 266.838 C 218.035 268.820,220.105 270.628,220.565 270.858 C 221.024 271.087,220.590 270.588,219.600 269.749 C 218.610 268.910,216.645 267.094,215.233 265.712 C 213.822 264.330,212.562 263.208,212.433 263.218 C 212.305 263.227,213.894 264.857,215.965 266.838 M294.344 265.807 C 292.883 267.233,291.808 268.400,291.955 268.400 C 292.103 268.400,293.383 267.230,294.800 265.800 C 296.217 264.370,297.292 263.203,297.188 263.207 C 297.085 263.211,295.805 264.381,294.344 265.807 M272.600 264.958 C 270.857 265.768,268.719 266.551,266.843 267.066 C 266.536 267.150,266.377 267.311,266.489 267.423 C 266.870 267.803,274.800 264.716,274.800 264.188 C 274.800 263.930,274.844 263.915,272.600 264.958 M241.800 267.200 C 242.901 267.673,243.292 267.673,243.000 267.200 C 242.864 266.980,242.358 266.813,241.876 266.828 C 241.031 266.855,241.029 266.869,241.800 267.200 M243.633 267.743 C 244.076 268.122,246.417 268.351,246.196 267.994 C 246.062 267.777,245.393 267.600,244.710 267.600 C 244.026 267.600,243.542 267.664,243.633 267.743 M263.600 268.006 C 263.178 268.282,263.415 268.323,264.400 268.142 C 266.125 267.825,266.451 267.598,265.167 267.606 C 264.635 267.609,263.930 267.789,263.600 268.006 M249.000 268.818 C 250.100 268.990,251.720 269.125,252.600 269.119 L 254.200 269.108 252.600 268.777 C 251.720 268.595,250.100 268.460,249.000 268.476 L 247.000 268.507 249.000 268.818 M256.800 268.800 L 255.400 269.095 257.000 269.112 C 257.880 269.122,259.500 268.990,260.600 268.818 L 262.600 268.507 260.400 268.506 C 259.190 268.506,257.570 268.638,256.800 268.800 M288.800 270.616 C 287.590 271.581,286.285 272.480,285.900 272.613 C 285.515 272.745,285.200 273.030,285.200 273.246 C 285.200 273.681,288.268 271.692,290.314 269.931 C 292.380 268.153,291.240 268.668,288.800 270.616 M221.600 271.495 C 221.600 271.884,223.214 272.919,223.451 272.682 C 223.547 272.586,223.169 272.210,222.612 271.845 C 222.056 271.480,221.600 271.322,221.600 271.495 M224.000 273.095 C 224.000 273.484,225.614 274.519,225.851 274.282 C 225.947 274.186,225.569 273.810,225.012 273.445 C 224.456 273.080,224.000 272.922,224.000 273.095 M237.000 279.600 C 237.136 279.820,237.642 279.987,238.124 279.972 C 238.969 279.945,238.971 279.931,238.200 279.600 C 237.099 279.127,236.708 279.127,237.000 279.600 M271.400 279.600 C 270.629 279.931,270.631 279.945,271.476 279.972 C 271.958 279.987,272.464 279.820,272.600 279.600 C 272.892 279.127,272.501 279.127,271.400 279.600 M268.800 280.400 C 267.976 280.664,267.941 280.726,268.600 280.754 C 269.040 280.773,269.670 280.613,270.000 280.400 C 270.701 279.947,270.214 279.947,268.800 280.400 M242.821 281.221 C 243.355 281.560,246.342 281.781,245.967 281.455 C 245.875 281.375,244.999 281.208,244.021 281.082 C 242.870 280.935,242.446 280.984,242.821 281.221 M265.000 281.200 L 263.400 281.486 264.800 281.537 C 265.570 281.565,266.470 281.413,266.800 281.200 C 267.455 280.777,267.362 280.777,265.000 281.200 M247.515 282.072 C 248.447 282.442,261.684 282.462,262.262 282.094 C 262.516 281.932,259.148 281.800,254.777 281.800 C 250.406 281.800,247.138 281.922,247.515 282.072 " stroke="none" fill="#ec644c" fill-rule="evenodd"></path><path id="path3" d="M177.855 175.245 C 144.006 175.416,116.256 175.611,116.188 175.678 C 116.121 175.746,116.006 224.896,115.933 284.900 L 115.800 394.000 177.300 394.000 C 217.902 394.000,238.800 393.865,238.800 393.601 C 238.800 393.338,217.968 393.168,177.700 393.101 L 116.600 393.000 116.499 284.500 L 116.399 176.000 133.599 176.000 L 150.800 176.000 150.800 256.500 C 150.800 340.626,150.757 338.212,152.355 344.400 C 155.555 356.797,166.501 368.033,179.200 371.958 C 185.416 373.879,180.659 373.800,290.400 373.800 L 393.800 373.800 393.901 274.300 L 394.002 174.800 316.701 174.867 C 274.185 174.903,211.705 175.073,177.855 175.245 M217.038 202.860 C 220.081 204.290,221.665 207.589,220.818 210.733 C 220.336 212.522,217.918 215.200,216.784 215.200 C 216.379 215.200,215.936 215.380,215.800 215.600 C 215.664 215.820,214.753 216.000,213.776 216.000 L 212.000 216.000 212.000 223.776 C 212.000 228.529,212.156 231.649,212.400 231.800 C 212.620 231.936,212.800 232.926,212.800 234.000 C 212.800 235.074,212.980 236.064,213.200 236.200 C 213.420 236.336,213.600 236.966,213.600 237.600 C 213.600 238.234,213.780 238.864,214.000 239.000 C 214.220 239.136,214.400 239.687,214.400 240.224 C 214.400 240.761,214.580 241.200,214.800 241.200 C 215.020 241.200,215.200 241.475,215.200 241.811 C 215.200 242.882,219.717 251.166,220.755 252.000 C 220.892 252.110,221.518 252.888,222.145 253.730 C 223.597 255.677,225.523 257.603,227.470 259.055 C 228.312 259.682,229.090 260.287,229.200 260.399 C 230.432 261.652,238.546 265.986,239.676 265.995 C 240.048 265.998,240.464 266.180,240.600 266.400 C 240.736 266.620,241.276 266.800,241.800 266.800 C 242.324 266.800,242.864 266.980,243.000 267.200 C 243.136 267.420,243.856 267.600,244.600 267.600 C 245.344 267.600,246.047 267.753,246.163 267.940 C 246.348 268.239,252.056 268.875,254.800 268.902 C 257.496 268.929,264.967 267.867,266.600 267.225 C 267.040 267.052,268.120 266.680,269.000 266.399 C 272.424 265.303,278.068 262.329,280.797 260.184 C 284.183 257.523,291.200 249.639,291.200 248.496 C 291.200 248.260,291.344 248.007,291.519 247.933 C 294.121 246.846,297.200 234.654,297.488 224.300 L 297.719 216.000 295.883 216.000 C 294.873 216.000,293.936 215.820,293.800 215.600 C 293.664 215.380,293.203 215.200,292.776 215.200 C 292.349 215.200,292.000 215.032,292.000 214.827 C 292.000 214.622,291.685 214.351,291.300 214.225 C 287.715 213.054,288.165 204.963,291.913 203.214 C 292.511 202.935,293.313 202.548,293.695 202.353 C 295.431 201.470,314.483 201.963,316.400 202.941 C 323.121 206.369,320.480 216.000,312.820 216.000 L 311.230 216.000 311.051 224.500 C 310.862 233.474,310.561 237.155,309.963 237.780 C 309.763 237.989,309.600 238.743,309.600 239.456 C 309.600 240.169,309.420 240.864,309.200 241.000 C 308.980 241.136,308.800 241.689,308.800 242.229 C 308.800 242.769,308.641 243.523,308.447 243.905 C 308.252 244.287,307.916 245.050,307.700 245.600 C 305.989 249.953,304.819 252.382,302.910 255.545 C 301.896 257.225,300.953 258.690,300.814 258.800 C 300.675 258.910,300.137 259.630,299.618 260.400 C 297.081 264.164,285.407 274.400,283.651 274.400 C 283.440 274.400,283.207 274.535,283.133 274.700 C 282.945 275.124,278.001 277.600,277.344 277.600 C 277.045 277.600,276.800 277.780,276.800 278.000 C 276.800 278.220,276.451 278.400,276.024 278.400 C 275.597 278.400,275.136 278.580,275.000 278.800 C 274.864 279.020,274.324 279.200,273.800 279.200 C 273.276 279.200,272.749 279.359,272.629 279.554 C 272.508 279.749,271.913 280.007,271.305 280.129 C 270.697 280.251,269.390 280.554,268.400 280.803 C 267.410 281.052,265.610 281.449,264.400 281.685 C 261.358 282.278,248.390 282.261,245.200 281.660 C 243.770 281.390,242.013 281.067,241.296 280.941 C 240.579 280.815,239.894 280.551,239.773 280.356 C 239.652 280.160,239.034 280.000,238.400 280.000 C 237.766 280.000,237.136 279.820,237.000 279.600 C 236.864 279.380,236.313 279.200,235.776 279.200 C 235.239 279.200,234.800 279.020,234.800 278.800 C 234.800 278.580,234.350 278.400,233.800 278.400 C 233.250 278.400,232.800 278.220,232.800 278.000 C 232.800 277.780,232.547 277.600,232.238 277.600 C 231.715 277.600,228.447 276.054,228.000 275.595 C 227.890 275.482,226.945 274.958,225.900 274.432 C 224.855 273.905,224.000 273.323,224.000 273.137 C 224.000 272.952,223.775 272.798,223.500 272.795 C 222.053 272.779,212.492 264.006,210.491 260.858 C 210.121 260.276,209.710 259.710,209.577 259.600 C 208.363 258.594,203.804 250.571,202.304 246.800 C 202.086 246.250,201.748 245.487,201.553 245.105 C 201.359 244.723,201.200 244.059,201.200 243.629 C 201.200 243.199,201.040 242.748,200.844 242.627 C 200.649 242.506,200.388 241.821,200.266 241.104 C 200.144 240.387,199.850 238.900,199.612 237.800 C 198.817 234.127,198.451 229.459,198.425 222.700 L 198.400 216.000 196.795 216.000 C 195.912 216.000,194.877 215.841,194.495 215.647 C 194.113 215.452,193.311 215.065,192.713 214.786 C 188.134 212.649,188.578 205.236,193.431 202.815 C 195.935 201.565,214.359 201.600,217.038 202.860 " stroke="none" fill="#fb6c54" fill-rule="evenodd"></path><path id="path4" d="M64.600 106.728 L 64.600 119.000 61.965 119.227 C 54.923 119.833,52.753 128.115,58.824 131.212 C 61.337 132.494,81.477 132.398,83.770 131.093 C 87.037 129.234,87.978 123.728,85.424 121.408 C 83.483 119.644,83.045 119.451,80.493 119.231 L 77.800 119.000 77.694 107.248 C 77.619 98.911,77.720 95.337,78.043 94.948 C 78.368 94.557,78.372 94.400,78.057 94.400 C 77.268 94.400,77.174 96.029,77.288 107.800 L 77.400 119.400 79.722 119.521 C 86.286 119.862,88.961 126.863,83.906 130.468 C 82.612 131.392,82.499 131.400,71.137 131.400 L 59.674 131.400 58.195 130.200 C 53.348 126.267,56.108 119.862,62.800 119.514 L 65.000 119.400 65.106 107.475 C 65.164 100.917,65.074 95.304,64.906 95.003 C 64.738 94.702,64.600 99.978,64.600 106.728 M167.135 95.074 C 167.627 95.998,167.829 117.337,167.357 118.567 C 167.179 119.031,166.564 119.200,165.051 119.200 C 158.163 119.200,155.570 128.124,161.568 131.184 C 163.063 131.946,163.885 132.000,174.104 132.000 L 185.040 132.000 186.715 130.914 C 192.309 127.287,189.927 119.777,183.000 119.200 L 180.600 119.000 180.600 106.920 C 180.600 100.276,180.462 94.977,180.294 95.146 C 180.126 95.314,180.036 100.840,180.094 107.426 L 180.200 119.400 182.400 119.514 C 189.004 119.857,191.723 126.890,186.651 130.508 C 185.346 131.438,168.363 132.097,163.671 131.399 C 156.098 130.273,157.400 120.230,165.200 119.607 L 167.800 119.400 167.906 107.354 C 168.001 96.485,167.946 95.253,167.340 94.754 C 166.732 94.252,166.712 94.281,167.135 95.074 M193.800 202.982 C 186.616 206.431,189.037 214.981,197.400 215.697 L 198.600 215.800 198.813 223.400 L 199.027 231.000 199.113 223.143 C 199.211 214.330,199.378 214.800,196.147 214.800 C 190.257 214.800,187.861 207.788,192.533 204.224 L 193.876 203.200 205.176 203.200 C 217.746 203.200,217.976 203.246,219.439 206.076 C 221.575 210.205,218.763 214.800,214.100 214.800 C 211.253 214.800,211.196 214.935,211.228 221.580 C 211.279 231.919,212.084 236.859,214.763 243.263 C 217.389 249.542,222.928 256.561,228.818 261.071 C 232.603 263.970,241.875 268.375,243.236 267.921 C 243.464 267.845,242.605 267.441,241.325 267.022 C 222.620 260.905,211.997 245.259,211.852 223.614 L 211.800 215.806 213.839 215.554 C 220.855 214.688,223.153 206.813,217.406 203.331 C 215.755 202.331,195.772 202.036,193.800 202.982 M293.442 202.815 C 285.835 205.092,288.260 214.983,296.600 215.697 L 297.800 215.800 297.761 224.600 C 297.734 230.671,297.830 232.811,298.070 231.501 C 298.261 230.457,298.369 226.317,298.309 222.301 L 298.200 215.000 296.200 214.895 C 293.209 214.739,292.498 214.496,291.263 213.203 C 289.564 211.425,288.976 209.287,289.654 207.355 C 291.077 203.302,291.446 203.200,304.689 203.200 L 315.818 203.200 317.299 204.421 C 321.745 208.086,319.137 214.800,313.269 214.800 C 310.505 214.800,310.524 214.733,310.291 225.000 C 310.176 230.060,309.865 235.100,309.600 236.200 C 307.938 243.104,307.104 245.471,304.384 251.000 C 296.863 266.291,281.806 277.742,265.400 280.648 C 264.424 280.821,264.089 280.998,264.541 281.103 C 267.017 281.676,282.839 275.620,285.200 273.195 C 285.310 273.082,286.479 272.272,287.797 271.395 C 302.669 261.503,311.200 243.035,311.200 220.731 L 311.200 215.600 312.500 215.598 C 320.017 215.585,322.850 206.164,316.240 203.162 C 314.444 202.347,295.948 202.065,293.442 202.815 M199.286 233.200 C 199.283 234.190,199.424 235.450,199.600 236.000 C 200.065 237.451,200.082 235.218,199.623 233.000 L 199.292 231.400 199.286 233.200 M296.980 235.100 C 296.713 236.662,296.135 238.758,295.545 240.300 C 294.666 242.594,294.442 243.126,293.568 245.000 C 291.156 250.167,284.800 257.796,280.400 260.804 C 279.630 261.331,278.910 261.860,278.800 261.981 C 277.533 263.370,269.713 266.810,265.200 267.964 C 263.550 268.386,262.596 268.747,263.080 268.766 C 270.545 269.056,284.782 259.700,291.040 250.391 C 294.327 245.502,298.884 233.600,297.469 233.600 C 297.341 233.600,297.121 234.275,296.980 235.100 M200.041 237.834 C 199.698 244.842,209.664 261.323,219.039 269.250 C 225.769 274.940,241.239 281.987,245.059 281.103 C 245.511 280.998,245.176 280.821,244.200 280.648 C 239.281 279.777,231.742 277.008,227.400 274.479 C 217.646 268.798,209.548 260.093,204.812 250.200 C 202.437 245.240,202.476 245.344,200.483 238.400 C 200.223 237.494,200.067 237.294,200.041 237.834 M244.400 268.400 C 244.730 268.613,245.540 268.773,246.200 268.754 C 247.376 268.721,247.380 268.714,246.400 268.400 C 244.870 267.910,243.642 267.910,244.400 268.400 M248.476 269.260 C 248.984 269.403,251.830 269.520,254.800 269.520 C 257.770 269.520,260.616 269.403,261.124 269.260 C 261.632 269.117,258.786 269.000,254.800 269.000 C 250.814 269.000,247.968 269.117,248.476 269.260 M247.442 281.677 C 248.299 281.829,251.610 281.954,254.800 281.954 C 257.990 281.954,261.301 281.829,262.158 281.677 C 263.015 281.525,259.704 281.400,254.800 281.400 C 249.896 281.400,246.585 281.525,247.442 281.677 " stroke="none" fill="#af6054" fill-rule="evenodd"></path></g></svg>